<svg xmlns="http://www.w3.org/2000/svg" width="114" height="107" viewBox="0 0 114 107"><path fill="#FFF" d="M100.951 23.726a2.214 2.214 0 01-1.881-.583 2.153 2.153 0 01-.631-1.85c.411-3.012 1.109-6.745-1.008-8.809-3.547-3.451-9.223-3.358-12.674.168-3.069 3.149-2.917 7.386-2.917 12.899.056.821-.039 3.388 0 4.203v10.75c3.068 0 8.941.029 12.297.029.805.012 1.64-.029 2.456 0 5.293 0 10.293.283 13.372-2.879 3.451-3.543 3.368-9.225-.174-12.675-2.105-2.062-5.828-1.756-8.84-1.253m8.58 44.031l-.101-.792-2.895-24.31c-2.174.659-4.504.774-6.802.774-1.249 0-2.528.041-3.783 0-.799 0-1.695.012-2.484 0-3.384 0-14.758.034-14.758.034V19.188c0-6.132 3.852-9.508 3.852-9.508l-.063.012-72.121-3.74-.871-.046c-3.801.046-6.858 3.127-6.858 6.925v64.307a6.93 6.93 0 006.932 6.925c.102 0 .186 0 .287-.006l.771-.081 3.913-.369v21.304l23.462-23.559 65.112-6.265.349-.035a6.921 6.921 0 006.082-6.866c-.011-.145-.011-.285-.024-.429"/></svg>